<?xml version="1.0" encoding="UTF-8" standalone="no"?>
<svg
   xmlns:dc="http://purl.org/dc/elements/1.1/"
   xmlns:cc="http://creativecommons.org/ns#"
   xmlns:rdf="http://www.w3.org/1999/02/22-rdf-syntax-ns#"
   xmlns:svg="http://www.w3.org/2000/svg"
   xmlns="http://www.w3.org/2000/svg"
   xmlns:sodipodi="http://sodipodi.sourceforge.net/DTD/sodipodi-0.dtd"
   xmlns:inkscape="http://www.inkscape.org/namespaces/inkscape"
   version="1.1"
   x="0px"
   y="0px"
   viewBox="0 0 68.847004 88.556999"
   enable-background="new 0 0 144.083 144"
   xml:space="preserve"
   id="svg2"
   inkscape:version="0.91 r13725"
   sodipodi:docname="poi2.svg"
   width="68.847"
   height="88.556999"><metadata
     id="metadata16"><rdf:RDF><cc:Work
         rdf:about=""><dc:format>image/svg+xml</dc:format><dc:type
           rdf:resource="http://purl.org/dc/dcmitype/StillImage" /><dc:title></dc:title></cc:Work></rdf:RDF></metadata><defs
     id="defs14" /><sodipodi:namedview
     pagecolor="#ffffff"
     bordercolor="#666666"
     borderopacity="1"
     objecttolerance="10"
     gridtolerance="10"
     guidetolerance="10"
     inkscape:pageopacity="0"
     inkscape:pageshadow="2"
     inkscape:window-width="1867"
     inkscape:window-height="1056"
     id="namedview12"
     showgrid="false"
     inkscape:zoom="1.3111111"
     inkscape:cx="34.423496"
     inkscape:cy="26.279"
     inkscape:window-x="53"
     inkscape:window-y="24"
     inkscape:window-maximized="1"
     inkscape:current-layer="svg2"
     fit-margin-top="0"
     fit-margin-left="0"
     fit-margin-right="0"
     fit-margin-bottom="0" /><circle
     cx="34.424"
     cy="36.372002"
     r="7.48"
     id="circle4" /><path
     d="M 50.67,0 18.176,0 C 8.138,0 0,8.137 0,18.175 l 0,32.493 c 0,10.038 8.138,18.175 18.176,18.175 l 5.561,0 10.687,19.714 10.686,-19.714 5.561,0 c 10.039,0 18.176,-8.137 18.176,-18.175 l 0,-32.494 C 68.845,8.136 60.709,0 50.67,0 Z m 2.379,46.271 c 0,1.788 -1.449,3.238 -3.238,3.238 l -30.774,0 c -1.788,0 -3.239,-1.45 -3.239,-3.238 l 0,-19.521 c 0,-1.79 1.451,-3.24 3.239,-3.24 l 1.104,0 1.164,0 0,-4.888 c 0,-1.075 0.87,-1.944 1.943,-1.944 l 7.729,0 c 1.074,0 1.943,0.869 1.943,1.944 l 0,4.888 2.256,0 14.635,0 c 1.789,0 3.238,1.45 3.238,3.24 l 0,19.521 z"
     id="path6"
     inkscape:connector-curvature="0" /></svg>